# AST/ASF file generated using VICON BodyLanguage
# -----------------------------------------------
:version 1.10
:name VICON
:units
  mass 1.0
  length 0.45
  angle deg
:documentation
   .ast/.asf automatically generated from VICON data using
   VICON BodyBuilder and BodyLanguage model FoxedUp or BRILLIANT.MOD
:root
   order TX TY TZ RX RY RZ
   axis XYZ
   position 0 0 0  
   orientation 0 0 0 
:bonedata
  begin
     id 1 
     name lhipjoint
     direction 0.610259 -0.730986 0.305356 
     length 2.50941 
     axis 0 0 0  XYZ
  end
  begin
     id 2 
     name lfemur
     direction 0.34202 -0.939693 0  
     length 7.48822  
     axis 0 0 20  XYZ
    dof rx ry rz
    limits (-160.0 20.0)
           (-70.0 70.0)
           (-60.0 70.0)
  end
  begin
     id 3 
     name ltibia
     direction 0.34202 -0.939693 0   
     length 7.60141   
     axis 0 0 20   XYZ
    dof rx
    limits (-10.0 170.0)
  end
  begin
     id 4 
     name lfoot
     direction 0.0673488 -0.185039 0.980421   
     length 2.04049   
     axis -90 7.62852e-016 20   XYZ
    dof rx rz
    limits (-45.0 90.0)
           (-70.0 20.0)
  end
  begin
     id 5 
     name ltoes
     direction 1.5356e-011 -4.21729e-011 1   
     length 1.02897   
     axis -90 7.62852e-016 20   XYZ
    dof rx
    limits (-90.0 20.0)
  end
  begin
     id 6 
     name rhipjoint
     direction -0.57612 -0.754205 0.315056   
     length 2.43216  
     axis 0 0 0  XYZ 
  end
  begin
     id 7 
     name rfemur
     direction -0.34202 -0.939693 0   
     length 7.42799   
     axis 0 0 -20   XYZ
    dof rx ry rz
    limits (-160.0 20.0)
           (-70.0 70.0)
           (-70.0 60.0)
  end
  begin
     id 8 
     name rtibia
     direction -0.34202 -0.939693 0   
     length 7.69484   
     axis 0 0 -20   XYZ
    dof rx
    limits (-10.0 170.0)
 end
 begin
     id 9 
     name rfoot
     direction -0.111837 -0.30727 0.945028   
     length 2.15769  
     axis -90 -7.62852e-016 -20   XYZ
    dof rx rz
    limits (-45.0 90.0)
           (-20.0 70.0)
  end
  begin
     id 10 
     name rtoes
     direction -1.53539e-011 -4.21878e-011 1   
     length 1.07391   
     axis -90 -7.62852e-016 -20   XYZ
    dof rx
    limits (-90.0 20.0)
  end
  begin
     id 11 
     name lowerback
     direction 0.00552624 0.990109 -0.140195   
     length 2.12403   
     axis 0 0 0   XYZ
    dof rx ry rz
    limits (-20.0 45.0)
           (-30.0 30.0)
           (-30.0 30.0)
  end
  begin
     id 12 
     name upperback
     direction 0.00361898 0.999976 -0.00584723   
     length 2.13232   
     axis 0 0 0   XYZ
    dof rx ry rz
    limits (-20.0 45.0)
           (-30.0 30.0)
           (-30.0 30.0)
  end
  begin
     id 13 
     name thorax
     direction -0.000331275 0.998253 0.0590847   
     length 2.17688   
     axis 0 0 0   XYZ
    dof rx ry rz
    limits (-20.0 45.0)
           (-30.0 30.0)
           (-30.0 30.0)
  end
  begin
     id 14 
     name lowerneck
     direction -0.0561561 0.979832 0.19177   
     length 1.64159   
     axis 0 0 0   XYZ
    dof rx ry rz
    limits (-20.0 45.0)
           (-30.0 30.0)
           (-30.0 30.0)
  end
  begin
     id 15 
     name upperneck
     direction 0.0827153 0.979385 -0.184293   
     length 1.68939   
     axis 0 0 0   XYZ
    dof rx ry rz
    limits (-20.0 45.0)
           (-30.0 30.0)
           (-30.0 30.0)
  end
  begin
     id 16
     name head
     direction 0.0278583 0.995936 -0.0856488  
     length 1.70207  
     axis 0 0 0   XYZ
    dof rx ry rz
    limits (-20.0 45.0)
           (-30.0 30.0)
           (-30.0 30.0)
  end
  begin
     id 17 
     name lclavicle
     direction 0.950993 0.301131 -0.0702275  
     length 3.41652  
     axis 0 0 0   XYZ
    dof ry rz
    limits (-20.0 10.0)
           (0.0 20.0)
  end
  begin
     id 18 
     name lhumerus
     direction 1 -4.48981e-011 -3.9662e-029   
     length 5.32955   
     axis 180 -30 -90   XYZ
    dof rx ry rz
    limits (-60.0 90.0)
           (-90.0 90.0)
           (-90.0 90.0)
  end
  begin
     id 19
     name lradius
     direction 1 -4.48925e-011 -9.0549e-027   
     length 3.69232   
     axis 180 -30 -90   XYZ
    dof rx
    limits (-10.0 170.0)
  end
  begin
     id 20
     name lwrist
     direction 1 -4.49007e-011 -1.49005e-026   
     length 1.84616   
     axis 9.0955e-015 90 90   XYZ
    dof ry
    limits (-180.0 0.0)
 end
  begin
     id 21 
     name lhand
     direction 1 -4.49016e-011 -2.98023e-026   
     length 0.536598   
     axis 1.90115e-014 90 90   XYZ
    dof rx rz
    limits (-90.0 90.0)
           (-45.0 45.0)
  end
  begin
     id 22 
     name lfingers
     direction 1 -4.48924e-011 -5.9578e-026   
     length 0.432619   
     axis 3.80223e-014 90 90   XYZ
    dof rx
    limits (0.0 90.0)
  end
  begin
     id 23
     name lthumb
     direction 0.707107 -6.34947e-011 0.707107   
     length 0.621157   
     axis -90 45 -3.84942e-014   XYZ
    dof rx rz
    limits (-45.0 45.0)
           (-45.0 45.0)
  end
  begin
     id 24 
     name rclavicle
     direction -0.955495 0.276497 -0.102848   
     length 3.36357  
     axis 0 0 0   XYZ 
    dof ry rz
    limits (-10.0 20.0)
           (-20.0 0.0)
  end
  begin
     id 25 
     name rhumerus
     direction -1 -4.48961e-011 3.30983e-027  
     length 5.23431   
     axis 180 30 90   XYZ
    dof rx ry rz
    limits (-90.0 60.0)
           (-90.0 90.0)
           (-90.0 90.0)
  end
  begin
     id 26 
     name rradius
     direction -1 -4.48965e-011 -6.63263e-027   
     length 3.55301   
     axis 180 30 90   XYZ
    dof rx
    limits (-10.0 170.0)
  end
  begin
     id 27 
     name rwrist
     direction -1 -4.48942e-011 -1.48958e-026   
     length 1.77651   
     axis 9.0955e-015 -90 -90   XYZ
    dof ry
    limits (-180.0 0.0)
  end
  begin
     id 28
     name rhand
     direction -1 -4.48977e-011 -2.97966e-026   
     length 0.772522   
     axis 1.90115e-014 -90 -90   XYZ
    dof rx rz
    limits (-90.0 90.0)
           (-45.0 45.0)
  end
  begin
     id 29
     name rfingers
     direction -1 -4.49135e-011 -5.96389e-026   
     length 0.622827   
     axis 3.80223e-014 -90 -90   XYZ
    dof rx
    limits (0.0 90.0)
  end
  begin
     id 30
     name rthumb
     direction -0.707107 -6.34969e-011 0.707107   
     length 0.894259   
     axis -90 -45 3.84942e-014   XYZ
    dof rx rz
    limits (-45.0 45.0)
           (-45.0 45.0)
  end
:hierarchy
  begin
    root lhipjoint rhipjoint lowerback
    lhipjoint lfemur
    lfemur ltibia
    ltibia lfoot
    lfoot ltoes
    rhipjoint rfemur
    rfemur rtibia
    rtibia rfoot
    rfoot rtoes
    lowerback upperback
    upperback thorax
    thorax lowerneck lclavicle rclavicle
    lowerneck upperneck
    upperneck head
    lclavicle lhumerus
    lhumerus lradius
    lradius lwrist
    lwrist lhand lthumb
    lhand lfingers
    rclavicle rhumerus
    rhumerus rradius
    rradius rwrist
    rwrist rhand rthumb
    rhand rfingers
  end

#!OML:ASF F:\VICON\USERDATA\INSTALL\rory3\rory3.ASF
:FULLY-SPECIFIED
:DEGREES
40
root 15.5414 17.5709 -8.17993 -28.1239 -78.1351 26.842
lowerback 10.9585 1.09036 -3.37304
upperback 0.677749 0.989438 -0.201284
thorax -5.49572 0.553724 1.53798
lowerneck -20.1292 -3.51844 -11.3719
upperneck 33.8021 -3.61374 5.27218
head 15.6428 -2.49385 3.47042
rclavicle -6.95746e-016 1.11319e-014
rhumerus -33.6286 -20.7043 -75.6569
rradius 30.5976
rwrist 10.6224
rhand -14.1562 9.77574
rfingers 7.12502
rthumb 11.9785 -19.8615
lclavicle -6.95746e-016 1.11319e-014
lhumerus -31.674 8.24686 77.9338
lradius 31.9242
lwrist -3.16665
lhand -19.6509 26.087
lfingers 7.12502
lthumb 6.67688 55.9617
rfemur -15.684 -2.70631 20.0878
rtibia 45.1124
rfoot -22.02 6.6125
rtoes 14.2245
lfemur -7.88486 -0.264176 -25.4597
ltibia 27.3954
lfoot -18.4927 -6.4549
ltoes -26.7605
41
root 15.5348 17.5617 -8.12638 -30.2026 -78.2433 28.9482
lowerback 10.9446 1.144 -3.51471
upperback 0.631686 1.03206 -0.377962
thorax -5.53813 0.576911 1.42562
lowerneck -20.0556 -3.42729 -11.3928
upperneck 33.8276 -3.43659 5.15125
head 15.616 -2.4429 3.4561
rclavicle 7.15625e-015 -3.97569e-016
rhumerus -33.681 -20.5918 -75.8535
rradius 30.557
rwrist 10.6565
rhand -14.3509 9.89611
rfingers 7.12502
rthumb 11.7907 -19.752
lclavicle 7.15625e-015 -3.97569e-016
lhumerus -31.7847 8.20473 77.7899
lradius 31.8028
lwrist -3.28011
lhand -19.7337 26.1353
lfingers 7.12502
lthumb 6.59693 56.0126
rfemur -15.4743 -2.55373 19.9849
rtibia 44.646
rfoot -21.7035 3.36263
rtoes 15.6774
lfemur -7.77398 0.134017 -25.9333
ltibia 27.3814
lfoot -19.2236 -6.78145
ltoes -28.1981
42
root 15.5298 17.5568 -8.07101 -31.9879 -78.3583 30.7565
lowerback 10.9647 1.19685 -3.61686
upperback 0.565044 1.0794 -0.509032
thorax -5.62167 0.603018 1.33718
lowerneck -19.9271 -3.33978 -11.3937
upperneck 33.8616 -3.27944 5.01901
head 15.5822 -2.40097 3.42955
rclavicle -4.87022e-015 9.93923e-015
rhumerus -33.7423 -20.3094 -76.0333
rradius 30.5043
rwrist 10.67
rhand -14.5446 9.88827
rfingers 7.12502
rthumb 11.6039 -19.7705
lclavicle -4.87022e-015 9.93923e-015
lhumerus -31.917 8.38552 77.6123
lradius 31.6199
lwrist -3.57488
lhand -20.0152 26.107
lfingers 7.12502
lthumb 6.3251 55.9926
rfemur -15.2423 -2.33198 19.8697
rtibia 44.1543
rfoot -21.6172 0.261194
rtoes 15.1138
lfemur -7.64734 0.569704 -26.3164
ltibia 27.3214
lfoot -19.6845 -6.79185
ltoes -29.8147
43
root 15.5267 17.5557 -8.01778 -32.8284 -78.5955 31.8124
lowerback 10.7723 1.27256 -3.4818
upperback 0.456322 1.20044 -0.587483
thorax -5.62988 0.660432 1.1617
lowerneck -19.8471 -3.23535 -11.2194
upperneck 33.9232 -3.10824 4.75704
head 15.5647 -2.34839 3.31969
rclavicle 4.96962e-014 -5.96354e-015
rhumerus -33.7909 -20.2329 -76.0742
rradius 30.4537
rwrist 10.6187
rhand -14.4308 9.993
rfingers 7.12502
rthumb 11.7137 -19.6595
lclavicle 4.96962e-014 -5.96354e-015
lhumerus -32.0597 8.44495 77.5473
lradius 31.5236
lwrist -3.93831
lhand -19.6856 25.8631
lfingers 7.12502
lthumb 6.6433 55.7388
rfemur -15.2013 -1.91298 19.962
rtibia 43.6019
rfoot -21.67 -1.94049
rtoes 12.7903
lfemur -7.73216 0.846591 -26.4392
ltibia 27.2709
lfoot -19.8497 -6.76941
ltoes -29.7179
44
root 15.5216 17.5606 -7.96917 -33.3397 -78.7717 32.4841
lowerback 10.6501 1.31597 -3.31436
upperback 0.355976 1.279 -0.663465
thorax -5.66508 0.696017 0.976528
lowerneck -19.875 -3.18286 -11.0806
upperneck 34.0316 -2.98817 4.49653
head 15.6031 -2.32211 3.20784
rclavicle 1.07095e-014 -6.75868e-015
rhumerus -33.8607 -20.154 -76.1317
rradius 30.4293
rwrist 10.6153
rhand -14.3672 10.0307
rfingers 7.12502
rthumb 11.775 -19.6183
lclavicle 1.07095e-014 -6.75868e-015
lhumerus -32.1836 8.39411 77.4901
lradius 31.4211
lwrist -4.1639
lhand -18.9979 25.4339
lfingers 7.12502
lthumb 7.30721 55.2877
rfemur -15.0433 -1.49388 19.9991
rtibia 43.0453
rfoot -21.9254 -2.76771
rtoes 12.2854
lfemur -7.7659 0.800158 -26.491
ltibia 27.2792
lfoot -20.0386 -7.0318
ltoes -28.1134
